<svg height="512" viewBox="0 0 47 58" width="512" xmlns="http://www.w3.org/2000/svg"><g id="Page-1" fill="none" fill-rule="evenodd"><g id="011---Cocktail" fill-rule="nonzero"><path id="Shape" d="m32 54.5c0 1.93-4.92 3.5-11 3.5s-11-1.57-11-3.5c0-1.46 2.81-2.71 6.82-3.24.66-.08 1.35-.15 2.06-.19h.01c.064502-.3532541.1012807-.7110113.11-1.07v-8c0-5.11-1.6-8.08-2.46-9.32h8.92c-.86 1.24-2.46 4.21-2.46 9.32v8c.0087193.3589887.045498.7167459.11 1.07h.01c.72.04 1.42.11 2.09.2 3.99.52 6.79 1.77 6.79 3.23z" fill="#3b97d3"/><path id="Shape" d="m26.54 54.94c-.1723833.2015762-.4177863.3264119-.6822166.3470412-.2644304.0206293-.5262244-.0646378-.7277834-.2370412-1.1125651-1.0524691-1.8233607-2.4599151-2.01-3.98.72.04 1.42.11 2.09.2.1575344.8633596.584651 1.6545757 1.22 2.26.2015762.1723833.3264119.4177863.3470412.6822166.0206293.2644304-.0646378.5262244-.2370412.7277834z" fill="#2980ba"/><path id="Shape" d="m18.88 51.07c-.1618786 1.5777629-.8817569 3.0458893-2.03 4.14-.1805437.1559223-.4114494.2411798-.65.24-.4186996.0000322-.7930899-.2607843-.9381468-.6535538-.1450569-.3927694-.0300649-.8343237.2881468-1.1064462.67329-.6526086 1.11859-1.5046393 1.27-2.43.66-.08 1.35-.15 2.06-.19z" fill="#2980ba"/><path id="Shape" d="m42 14s0 19-21 19c-3.9385488.1187809-7.8441017-.7510297-11.36-2.53-9.64-5.16-9.64-16.47-9.64-16.47z" fill="#f0c419"/><path id="Shape" d="m29.75 14c-.83 5.1-4.45 16.18-20.11 16.47-9.64-5.16-9.64-16.47-9.64-16.47z" fill="#f3d55b"/><path id="Shape" d="m42 14c0 .71-.62 1.39-1.75 2-3.24-1.76-10.64-3-19.25-3s-16.01 1.24-19.25 3c-1.13-.61-1.75-1.29-1.75-2 0-2.76 9.4-5 21-5s21 2.24 21 5z" fill="#2fa8cc"/><g fill="#f29c1f"><circle id="Oval" cx="10" cy="23" r="1"/><circle id="Oval" cx="32" cy="23" r="1"/><circle id="Oval" cx="13" cy="27" r="1"/><circle id="Oval" cx="29" cy="27" r="1"/></g><path id="Shape" d="m32 16c-.4043959-.0000863-.7689341-.2437275-.923678-.6173454-.1547439-.373618-.0692299-.8036603.216678-1.0896546l11-11c.2510745-.25995658.6228779-.3642126.9725073-.27269716.3496295.09151544.6226744.3645604.7141899.71418984.0915154.34962943-.0127406.72143285-.2726972.97250732l-11 11c-.1874927.1875494-.4418052.2929434-.707.293z" fill="#f9eab0"/><path id="Shape" d="m45.775.731-.675 2.448c-.0314422.10865365-.0062783.2258344.067.312l1.6 1.862c.0823464.10163908.1017355.24048214.0503838.36079185s-.1650239.20235832-.2953838.21320815l-2.51.217c-.1127449.0111396-.2137724.07442052-.273.171l-1.346 2.195c-.0649439.11377567-.1893266.18028676-.3200117.17111962-.130685-.00916714-.2445642-.09239155-.2929883-.21411962l-.861-2.312c-.0390464-.10628356-.1301498-.18491218-.241-.208l-2.415-.5c-.1277277-.02963553-.2271499-.12988228-.2557294-.25785043-.0285796-.12796815.0187462-.2609886.1217294-.34214957l1.971-1.658c.087985-.07392625.1355158-.18532675.128-.3l-.163-2.509c-.0086847-.13075641.0555748-.25561345.1670286-.32453884s.2518661-.07064169.3649714-.00446116l2.079 1.3c.0963762.05934743.215966.06684522.319.02l2.319-1.038c.1191277-.05637502.2602952-.0371876.3600543.04893841.099759.08612601.1393371.22298363.1009457.34906159z" fill="#f0c419"/><ellipse id="Oval" cx="21" cy="16" fill="#f29c1f" rx="19.25" ry="3"/><circle id="Oval" cx="21" cy="26" fill="#e64c3c" r="4"/><path id="Shape" d="m21 25c-.5522847 0-1-.4477153-1-1v-7c0-8.048-9.764-9.94-10.18-10.016-.54344818-.09913512-.90363509-.62005181-.80449997-1.1635.09913511-.54344818.62005178-.9036351 1.16349997-.8045.121.022 11.821 2.262 11.821 11.984v7c0 .5522847-.4477153 1-1 1z" fill="#65ddb9"/></g></g></svg>