<svg enable-background="new 0 0 140 140" height="512" viewBox="0 0 140 140" width="512" xmlns="http://www.w3.org/2000/svg"><circle cx="70" cy="70" fill="#de594e" r="64"/><path d="m132.893692 81.8123016-58.2155685-58.2158165-.0007935.0073243c-.2407227-.2568359-.5772705-.421875-.9576416-.421875h-7.4400024c-.7299805 0-1.3200073.5898438-1.3200073 1.3203125v2.2998047c0 .1484375.0601807.28125.1522827.3867188l-.0053101.0014648.0177612.0175781c.0048828.0053711.0098267.0097656.0149536.0151367l.3794556.3793945-.0591431.5395508h-.25c-.2799683 0-.5100098.2202148-.5100098.5102539 0 .1362305.0559082.2592773.144043.3510742l-.0015259.0004883.0059814.0058594c.0012817.0014648.0025024.0024414.0037842.0039062l.4650879.465332-2.4073524 23.3432618-4.2799683 7.4897461c-.5.8701172-.75 1.8701172-.7200317 2.8803711l1.210022 38.4897423-1.5 3.5200195c-.2600098.590332-.3900146 1.2299805-.3900146 1.8701172v4.9799805c0 1.2993164.5228271 2.4760742 1.3659668 3.3374023l-.0022583.0019531.0209351.0209961c.0067749.0068359.0136108.0136719.0204468.0205078l18.1997719 18.199707c28.2047118-2.9951172 50.9234008-24.3110351 56.0591353-51.8203125z" opacity=".1"/><path d="m82.3826218 105.2007675-1.5065994-3.5154037 1.2124634-38.4954872c.0317307-1.0074463-.2162247-2.0041008-.7163849-2.8796349l-4.2790375-7.488205-2.4476395-23.6606655h.1443558c.2825928 0 .5117035-.2289772.5117035-.5116024s-.2291107-.511879-.5117035-.511879h-.2502365l-.283699-2.7424679-4.2558442.4728871-4.2558441-.472887-.283699 2.7424679h-.2501984c-.2826309 0-.5117416.2292538-.5117416.511879s.2291107.5116024.5117416.5116024h.1443176l-2.4476738 23.6606655-4.2790375 7.488205c-.5001602.8755341-.7481155 1.8721886-.7163849 2.8796349l1.2124672 38.4954872-1.5065689 3.5154037c-.253933.5926285-.3849106 1.2306061-.3849106 1.8755035v4.9799728c0 2.629364 2.1315155 4.7609482 4.7608795 4.7609482h8.0066529 8.006691c2.6293259 0 4.7608414-2.1315842 4.7608414-4.7609482v-4.9799728c-.0000001-.6448975-.1309433-1.2828751-.3849106-1.8755036z" fill="#ededed"/><path d="m78.8631058 102.0653687 1.2265625-38.9384727c.0195312-.6386719-.1376953-1.2695312-.4541016-1.8242188l-4.4892578-7.8544922-1.1224976-10.8530273h-8.0479736l-1.1224976 10.8530273-4.4892578 7.8544922c-.3164062.5546875-.4736328 1.1855469-.453125 1.8242188l1.2255859 38.9384727-1.6816406 3.9238281c-.1474609.3447266-.2226562.7109375-.2226562 1.0869141v4.9804688c0 1.5224609 1.2382812 2.7607422 2.7607422 2.7607422h16.0136719c1.5224609 0 2.7607422-1.2382812 2.7607422-2.7607422v-4.9804688c0-.3759766-.0751953-.7421875-.2226562-1.0869141z" fill="#963e25"/><g fill="#ededed"><path d="m73.7195969 23.1828079h-7.4393997c-.7273026 0-1.316925.5895882-1.316925 1.3168945v2.2994461c0 .3440189.2789612.6230507.6230469.6230507h8.8273926c.3441238 0 .6230545-.2790318.6230545-.6230507v-2.2991695c-.0000001-.7275829-.5896913-1.3171711-1.3171693-1.3171711z"/><path d="m77.3949585 105.2007675-.8997498-3.5154037.7240906-38.4954872c.0189514-1.0074463-.1291275-2.0041008-.4278259-2.8796349l-2.5554657-7.488205-1.4617386-23.6606655h.0862045c.1687698 0 .3055954-.2289772.3055954-.5116024s-.1368256-.511879-.3055954-.511879h-.149437l-.169426-2.7424679-2.5416106.4728871-2.5416107-.472887-.169426 2.7424679h-.1494217c-.1687851 0-.3056107.2292538-.3056107.511879s.1368256.5116024.3056107.5116024h.0861893l-1.4617615 23.6606655-2.5554581 7.488205c-.2986984.8755341-.4467812 1.8721886-.4278297 2.8796349l.7240906 38.4954872-.8997269 3.5154037c-.1516533.5926285-.2298737 1.2306061-.2298737 1.8755035v4.9799728c0 2.629364 1.272953 4.7609482 2.8432198 4.7609482h4.7816086 4.7816315c1.5702438 0 2.8431931-2.1315842 2.8431931-4.7609482v-4.9799728c-.0000001-.6448975-.0781937-1.2828751-.2298661-1.8755036z"/><path d="m82.3826218 105.2007675-1.5065994-3.5154037 1.2124634-38.4954872c.0317307-1.0074463-.2162247-2.0041008-.7163849-2.8796349l-4.2790375-7.488205-2.4476395-23.6606655h.1443558c.2825928 0 .5117035-.2289772.5117035-.5116024s-.2291107-.511879-.5117035-.511879h-.2502365l-.283699-2.7424679-4.2558442.4728871-4.2558441-.472887-.283699 2.7424679h-.2501984c-.2826309 0-.5117416.2292538-.5117416.511879s.2291107.5116024.5117416.5116024h.1443176l-2.4476738 23.6606655-4.2790375 7.488205c-.5001602.8755341-.7481155 1.8721886-.7163849 2.8796349l1.2124672 38.4954872-1.5065689 3.5154037c-.253933.5926285-.3849106 1.2306061-.3849106 1.8755035v4.9799728c0 2.629364 2.1315155 4.7609482 4.7608795 4.7609482h8.0066529 8.006691c2.6293259 0 4.7608414-2.1315842 4.7608414-4.7609482v-4.9799728c-.0000001-.6448975-.1309433-1.2828751-.3849106-1.8755036z"/></g><path d="m78.8631058 102.0653687 1.2265625-38.9384727c.0195312-.6386719-.1376953-1.2695312-.4541016-1.8242188l-4.4892578-7.8544922-1.1224976-10.8530273h-8.0479736l-1.1224976 10.8530273-4.4892578 7.8544922c-.3164062.5546875-.4736328 1.1855469-.453125 1.8242188l1.2255859 38.9384727-1.6816406 3.9238281c-.1474609.3447266-.2226562.7109375-.2226562 1.0869141v4.9804688c0 1.5224609 1.2382812 2.7607422 2.7607422 2.7607422h16.0136719c1.5224609 0 2.7607422-1.2382812 2.7607422-2.7607422v-4.9804688c0-.3759766-.0751953-.7421875-.2226562-1.0869141z" fill="#963e25"/><g fill="#ededed" opacity=".15"><path d="m67.4570389 25.3925209.8500366.1599121-.1000366 2.5900879h-.0999756c-.1099854 0-.2000122.2199707-.2000122.5100098 0 .2800293.0900269.5100098.2000122.5100098h.0599976l-.9700317 23.6599121-1.6799927 7.4899902c-.2000122.8701172-.2999878 1.8701172-.289978 2.8798828l.4799805 38.4902306-.5899658 3.5200195c-.1000366.5898438-.1500244 1.2299805-.1500244 1.869873v4.9799805c0 2.630127.8400269 4.7600098 1.8699951 4.7600098h-1.6199951c-1.5700073 0-2.8400269-2.1298828-2.8400269-4.7600098v-4.9799805c0-.6398926.0800171-1.2800293.2300415-1.869873l.8999634-3.5200195-.7299805-38.4902306c-.0200195-1.0097656.1300049-2.0097656.4299927-2.8798828l2.5599976-7.4899902 1.460022-23.6599121h-.0900269c-.1699829 0-.2999878-.2299805-.2999878-.5100098 0-.2900391.1300049-.5100098.2999878-.5100098h.1500244z"/><path d="m77.6270218 107.0724487v4.9799805c0 2.630127-1.2799683 4.7600098-2.8499756 4.7600098h-1.6199951c1.039978 0 1.8800049-2.1298828 1.8800049-4.7600098v-4.9799805c0-.6398926-.0499878-1.2800293-.1500244-1.869873l-.5999756-3.5200195.4799805-38.4902306c.0100098-1.0097656-.0799561-2.0097656-.2799683-2.8798828l-1.6900024-7.4899902-.960022-23.6599121h.0499878c.1100464 0 .2000122-.2299805.2000122-.5100098 0-.2900391-.0899658-.5100098-.2000122-.5100098h-.0999756l-.0999756-2.5900879.8499756-.1599121.1699829 2.75h.1500244c.1699829 0 .3099976.2199707.3099976.5100098 0 .2800293-.1400146.5100098-.3099976.5100098h-.0800171l1.460022 23.6599121 2.5499878 7.4899902c.2999878.8701172.4500122 1.8701172.4299927 2.8798828l-.7199707 38.4902306.8999634 3.5200195c.1500243.5898437.2299804 1.2299805.2299804 1.869873z"/></g><path d="m69.9970779 25.8725014-1.6900024-.3200684.0099487-.1599121z" fill="#ededed"/><path d="m73.7195969 23.1828079h-7.4393997c-.7273026 0-1.316925.5895882-1.316925 1.3168945v2.2994461c0 .3440189.2789612.6230507.6230469.6230507h8.8273926c.3441238 0 .6230545-.2790318.6230545-.6230507v-2.2991695c-.0000001-.7275829-.5896913-1.3171711-1.3171693-1.3171711z" fill="#dbd8dd"/></svg>