<svg height="512" viewBox="0 0 512 512" width="512" xmlns="http://www.w3.org/2000/svg"><g id="flat"><circle cx="256" cy="312" fill="#e6e6e6" r="176"/><path d="m248 40h16v112h-16z" fill="#b3b3b3"/><path d="m248 40h16v24h-16z" fill="#a3a2a2"/><path d="m240 104h32v64h-32z" fill="#e6e6e6"/><path d="m169.4 408h-60.92a175.841 175.841 0 0 0 147.52 80l-4.669-2.334a194.04 194.04 0 0 1 -81.931-77.666z" fill="#ff9f03"/><path d="m146.657 344h-63.746a174.941 174.941 0 0 0 25.565 64h60.924a194.032 194.032 0 0 1 -22.743-64z" fill="#ffcd01"/><path d="m144 312a194.268 194.268 0 0 1 2.657-32h-63.746a177.34 177.34 0 0 0 0 64h63.746a194.277 194.277 0 0 1 -2.657-32z" fill="#8726e2"/><path d="m342.6 216h60.92a175.841 175.841 0 0 0 -147.52-80l4.669 2.334a194.046 194.046 0 0 1 81.931 77.666z" fill="#3bdabe"/><path d="m169.4 216h-60.92a174.941 174.941 0 0 0 -25.565 64h63.746a194.032 194.032 0 0 1 22.739-64z" fill="#3bdabe"/><path d="m251.331 138.334 4.669-2.334a175.841 175.841 0 0 0 -147.524 80h60.924a194.046 194.046 0 0 1 81.931-77.666z" fill="#ff2b63"/><path d="m365.343 280h63.746a174.941 174.941 0 0 0 -25.565-64h-60.924a194.032 194.032 0 0 1 22.743 64z" fill="#ff9f03"/><path d="m429.089 280h-63.746a194.027 194.027 0 0 1 0 64h63.746a177.34 177.34 0 0 0 0-64z" fill="#48bdff"/><path d="m260.669 485.666-4.669 2.334a175.841 175.841 0 0 0 147.524-80h-60.924a194.04 194.04 0 0 1 -81.931 77.666z" fill="#ff2b63"/><path d="m342.6 408h60.92a174.941 174.941 0 0 0 25.565-64h-63.742a194.032 194.032 0 0 1 -22.743 64z" fill="#e6e6e6"/><path d="m284.491 216a406.34 406.34 0 0 1 10.244 64h70.608a194.032 194.032 0 0 0 -22.743-64z" fill="#e6e6e6"/><path d="m284.491 216h58.109a194.046 194.046 0 0 0 -81.935-77.666l-4.665-2.334 3.585 7.888a406.214 406.214 0 0 1 24.906 72.112z" fill="#48bdff"/><path d="m342.6 408h-58.109a406.214 406.214 0 0 1 -24.906 72.112l-3.585 7.888 4.669-2.334a194.04 194.04 0 0 0 81.931-77.666z" fill="#8726e2"/><path d="m296 312q0 16.047-1.265 32h70.608a194.027 194.027 0 0 0 0-64h-70.608q1.259 15.942 1.265 32z" fill="#ff2b63"/><path d="m284.491 408h58.109a194.032 194.032 0 0 0 22.739-64h-70.604a406.34 406.34 0 0 1 -10.244 64z" fill="#ff9f03"/><path d="m227.509 216h-58.109a194.032 194.032 0 0 0 -22.739 64h70.608a406.34 406.34 0 0 1 10.24-64z" fill="#ff2b63"/><path d="m227.509 408h-58.109a194.04 194.04 0 0 0 81.935 77.666l4.665 2.334-3.585-7.888a406.214 406.214 0 0 1 -24.906-72.112z" fill="#3bdabe"/><path d="m216 312q0-16.047 1.265-32h-70.608a194.027 194.027 0 0 0 0 64h70.608q-1.258-15.942-1.265-32z" fill="#ff9f03"/><path d="m146.657 344a194.032 194.032 0 0 0 22.743 64h58.113a406.34 406.34 0 0 1 -10.244-64z" fill="#e6e6e6"/><path d="m169.4 216h58.113a406.214 406.214 0 0 1 24.906-72.112l3.581-7.888-4.669 2.334a194.046 194.046 0 0 0 -81.931 77.666z" fill="#ffcd01"/><path d="m294.735 280a406.34 406.34 0 0 0 -10.244-64h-56.982a406.34 406.34 0 0 0 -10.244 64z" fill="#ffcd01"/><path d="m227.509 216h56.982a406.214 406.214 0 0 0 -24.906-72.112l-3.585-7.888-3.585 7.888a406.214 406.214 0 0 0 -24.906 72.112z" fill="#8726e2"/><path d="m216 312q0 16.047 1.265 32h77.47q1.259-15.942 1.265-32t-1.265-32h-77.47q-1.258 15.942-1.265 32z" fill="#3bdabe"/><path d="m284.491 408h-56.982a406.214 406.214 0 0 0 24.906 72.112l3.585 7.888 3.585-7.888a406.214 406.214 0 0 0 24.906-72.112z" fill="#48bdff"/><path d="m217.265 344a406.34 406.34 0 0 0 10.244 64h56.982a406.34 406.34 0 0 0 10.244-64z" fill="#8726e2"/><path d="m24 160a40 40 0 0 1 40 40 40 40 0 0 1 40-40 40 40 0 0 1 -40-40 40 40 0 0 1 -40 40z" fill="#ffcd01"/><path d="m408 96a40 40 0 0 1 40 40 40 40 0 0 1 40-40 40 40 0 0 1 -40-40 40 40 0 0 1 -40 40z" fill="#ffcd01"/><path d="m304 56h-96q-8-16-16-32h128z" fill="#703f16"/><path d="m224 328q-3.88 0-7.691-.284.317 8.157.956 16.284h77.47q1.259-15.942 1.265-32c0-4.252-.086-8.5-.22-12.743a103.648 103.648 0 0 1 -71.78 28.743z" fill="#38c1a7"/><path d="m294.123 273.134c.22 2.286.431 4.574.612 6.866h70.608a193.906 193.906 0 0 0 -13.537-45.61 132.171 132.171 0 0 1 -57.683 38.744z" fill="#d3d3d3"/><path d="m352.5 392c-.584 0-1.166-.012-1.748-.022q-3.708 8.2-8.148 16.022h60.92a175.108 175.108 0 0 0 22.555-50.619 95.3 95.3 0 0 1 -73.579 34.619z" fill="#d3d3d3"/><path d="m360 432a40 40 0 0 1 40 40 40 40 0 0 1 40-40 40 40 0 0 1 -40-40 40 40 0 0 1 -40 40z" fill="#ffcd01"/></g></svg>